<svg xmlns="http://www.w3.org/2000/svg" version="1.1" xmlns:xlink="http://www.w3.org/1999/xlink" xmlns:svgjs="http://svgjs.dev/svgjs" width="100" height="100" viewBox="0 0 2000 1247"><g transform="matrix(1,0,0,1,-1.2121212121212466,0.504858299595071)"><svg viewBox="0 0 396 247" data-background-color="#ffffff" preserveAspectRatio="xMidYMid meet" height="1247" width="2000" xmlns="http://www.w3.org/2000/svg" xmlns:xlink="http://www.w3.org/1999/xlink"><defs></defs><g id="tight-bounds" transform="matrix(1,0,0,1,0.2400000000000091,-0.09999999999999432)"><svg viewBox="0 0 395.52 247.2" height="247.2" width="395.52"><g><svg></svg></g><g><svg viewBox="0 0 395.52 247.2" height="247.2" width="395.52"><g transform="matrix(1,0,0,1,75.54432000000001,55.11272415826528)"><svg viewBox="0 0 244.43135999999996 136.97455168346943" height="136.97455168346943" width="244.43135999999996"><g><svg viewBox="0 0 244.43135999999996 136.97455168346943" height="136.97455168346943" width="244.43135999999996"><g><svg viewBox="0 0 244.43136 136.97455168346946" height="136.97455168346943" width="244.43135999999996"><g><svg viewBox="0 0 244.43136 136.97455168346946" height="136.97455168346946" width="244.43136"><g><svg viewBox="0 0 244.43136 136.97455168346946" height="136.97455168346946" width="244.43136"><g><svg viewBox="0 0 244.43136 97.49239344412608" height="97.49239344412608" width="244.43136"><g transform="matrix(1,0,0,1,0,0)"><svg width="244.43136" viewBox="1.6500000953674316 -34.20000076293945 87.23999786376953 34.79999923706055" height="97.49239344412608" data-palette-color="#1c4b82"><path d="M14-31.4L6.2-31.4Q5.4-31.4 4.95-30.88 4.5-30.35 4.5-29.7L4.5-29.7 1.65-29.7Q1.65-31.55 2.95-32.85L2.95-32.85Q4.3-34.2 6.05-34.2L6.05-34.2 28.7-34.2 28.7-31.4 17-31.4 17 0 14 0 14-31.4ZM39.6 0.5Q35.85 0.5 33.25-1.05 30.65-2.6 29.32-5.33 28-8.05 28-11.5L28-11.5Q28-14.9 29.27-18.1 30.55-21.3 33.12-23.35 35.7-25.4 39.4-25.4L39.4-25.4Q41.85-25.4 43.95-24.45 46.05-23.5 47.27-21.75 48.5-20 48.5-17.7L48.5-17.7Q48.5-14 45.35-11.98 42.2-9.95 36.65-10L36.65-10 31.15-10.05Q31.6-6.2 33.72-4.2 35.85-2.2 39.6-2.2L39.6-2.2Q41.85-2.2 43.77-2.83 45.7-3.45 47.5-4.75L47.5-4.75 49-2.75Q47.1-1.25 44.67-0.38 42.25 0.5 39.6 0.5L39.6 0.5ZM37.3-12.6Q45.5-12.6 45.5-17.75L45.5-17.75Q45.5-20.25 43.77-21.48 42.05-22.7 39.55-22.7L39.55-22.7Q36.75-22.7 34.82-21.1 32.9-19.5 31.95-17.15 31-14.8 31-12.6L31-12.6 37.3-12.6ZM61.7 0.6Q56.65 0.6 52.3-3.3L52.3-3.3 53.95-5.3Q55.84-3.75 57.72-2.93 59.59-2.1 61.75-2.1L61.75-2.1Q64.45-2.1 65.97-3.38 67.5-4.65 67.5-6.85L67.5-6.85Q67.5-8.25 66.82-9.13 66.15-10 65.02-10.55 63.9-11.1 61-12.3L61-12.3Q58.34-13.4 56.9-14.2 55.45-15 54.59-16.18 53.75-17.35 53.75-19.15L53.75-19.15Q53.75-22.1 55.84-23.88 57.95-25.65 61.45-25.65L61.45-25.65Q63.25-25.65 65.02-25.15 66.8-24.65 68.05-23.7L68.05-23.7 66.8-21.55Q64.5-22.95 61.59-22.95L61.59-22.95Q59.3-22.95 58.05-22.05 56.8-21.15 56.8-19.5L56.8-19.5Q56.8-18.25 57.47-17.45 58.15-16.65 59.22-16.13 60.3-15.6 62.8-14.6L62.8-14.6Q65.65-13.45 67.22-12.53 68.8-11.6 69.67-10.28 70.55-8.95 70.55-7L70.55-7Q70.55-3.55 68.12-1.48 65.7 0.6 61.7 0.6L61.7 0.6ZM82.24 0.5Q78.84 0.5 77.24-1.43 75.64-3.35 75.64-7.2L75.64-7.2 75.64-31.25 78.64-31.25 78.64-24.9 86.49-24.9 86.49-22.2 78.64-22.2 78.64-7.2Q78.64-2.2 82.24-2.2L82.24-2.2Q85.09-2.2 86.64-5.25L86.64-5.25 88.89-3.7Q87.74-1.6 86.14-0.55 84.54 0.5 82.24 0.5L82.24 0.5Z" opacity="1" transform="matrix(1,0,0,1,0,0)" fill="#1c4b82" class="undefined-text-0" data-fill-palette-color="primary" id="text-0"></path></svg></g></svg></g><g transform="matrix(1,0,0,1,0,120.50800771884158)"><svg viewBox="0 0 244.43136 16.46654396462786" height="16.46654396462786" width="244.43136"><g transform="matrix(1,0,0,1,0,0)"><svg width="244.43136" viewBox="5.349999904632568 -42.29999923706055 814.1199951171875 54.849998474121094" height="16.46654396462786" data-palette-color="#1c4b82"><path d="M29.3-37.9L34.15-37.9 34.15 0 28.85 0 10.2-29.75 10.2 0 5.35 0 5.35-37.9 10.6-37.9 29.3-8.15 29.3-37.9ZM52.5-27.65Q56.9-27.65 59.2-26.18 61.5-24.7 62.25-22.23 63-19.75 63-16L63-16 63 0 58.3 0 58.3-2.75Q56.4-0.95 54.5-0.15 52.6 0.65 50.4 0.65L50.4 0.65Q47.8 0.65 45.7-0.48 43.6-1.6 42.37-3.73 41.15-5.85 41.15-8.75L41.15-8.75Q41.15-13.25 43.95-15.73 46.75-18.2 51.5-18.2L51.5-18.2Q55.25-18.2 58.25-16.55L58.25-16.55Q58.2-19 57.75-20.45 57.3-21.9 55.9-22.68 54.5-23.45 51.75-23.45L51.75-23.45 48.05-23.45 48.05-27.65 52.5-27.65ZM51.05-3.4Q52.75-3.4 54.62-4.2 56.5-5 58.3-6.6L58.3-6.6 58.3-12.9Q55.5-14.3 52.2-14.3L52.2-14.3Q49.55-14.3 47.75-13.03 45.95-11.75 45.95-8.75L45.95-8.75Q45.95-5.95 47.47-4.67 49-3.4 51.05-3.4L51.05-3.4ZM70.75-32.85L70.75-40.4 75.45-40.4 75.45-32.85 70.75-32.85ZM68.4 12.55Q67.09 12.55 65.25 12.15L65.25 12.15 65.25 7.9Q66.2 8.15 67.75 8.15L67.75 8.15Q68.95 8.15 69.59 7.75 70.25 7.35 70.5 6.35 70.75 5.35 70.75 3.4L70.75 3.4 70.75-27.7 75.45-27.7 75.45 4.65Q75.45 9 73.87 10.78 72.3 12.55 68.4 12.55L68.4 12.55ZM91.49 0.65Q87.74 0.65 86.09-0.85 84.44-2.35 84.44-5.9L84.44-5.9 84.44-42.3 89.14-42.3 89.14-7.15Q89.14-5.15 89.77-4.42 90.39-3.7 92.14-3.7L92.14-3.7Q93.54-3.7 94.64-4L94.64-4 94.64 0.3Q92.64 0.65 91.49 0.65L91.49 0.65ZM103.59-13.45Q103.69-8.85 105.89-6.1 108.09-3.35 112.89-3.35L112.89-3.35Q116.54-3.35 120.89-5.4L120.89-5.4 122.34-1.5Q117.79 0.85 112.49 0.85L112.49 0.85Q108.09 0.85 104.99-1 101.89-2.85 100.29-6.15 98.69-9.45 98.69-13.85L98.69-13.85Q98.69-18.5 100.37-21.78 102.04-25.05 104.89-26.75 107.74-28.45 111.29-28.45L111.29-28.45Q116.74-28.45 119.84-25.05 122.94-21.65 122.94-15.3L122.94-15.3 122.94-13.45 103.59-13.45ZM111.29-24.25Q105.09-24.25 103.89-17.4L103.89-17.4 117.99-17.4Q117.74-20.9 116.09-22.58 114.44-24.25 111.29-24.25L111.29-24.25ZM142.34-28.45Q147.94-28.45 151.26-24.7 154.59-20.95 154.59-13.8L154.59-13.8Q154.59-6.65 151.26-2.9 147.94 0.85 142.34 0.85L142.34 0.85Q138.29 0.85 134.34-2.5L134.34-2.5 134.34 11.7 129.64 11.7 129.64-27.65 134.34-27.65 134.34-25.05Q138.34-28.45 142.34-28.45L142.34-28.45ZM141.69-3.5Q145.64-3.5 147.69-6.13 149.74-8.75 149.74-13.8L149.74-13.8Q149.74-18.85 147.69-21.45 145.64-24.05 141.69-24.05L141.69-24.05Q137.94-24.05 134.34-20.95L134.34-20.95 134.34-6.6Q138.04-3.5 141.69-3.5L141.69-3.5ZM170.34 0.85Q167.29 0.85 164.94 0.35 162.59-0.15 160.04-1.35L160.04-1.35 160.04-6Q164.79-3.35 170.34-3.35L170.34-3.35Q173.14-3.35 174.36-4.48 175.59-5.6 175.59-7.45L175.59-7.45Q175.59-9.25 174.61-10.1 173.64-10.95 171.44-11.55L171.44-11.55 168.19-12.35Q164.69-13.2 162.69-15.05 160.69-16.9 160.69-20.5L160.69-20.5Q160.69-24.25 163.14-26.35 165.59-28.45 170.34-28.45L170.34-28.45Q172.79-28.45 174.89-27.98 176.99-27.5 179.09-26.65L179.09-26.65 179.09-22.25Q177.04-23.2 175.04-23.73 173.04-24.25 170.49-24.25L170.49-24.25Q167.84-24.25 166.66-23.23 165.49-22.2 165.49-20.65L165.49-20.65Q165.49-18.95 166.51-18.07 167.54-17.2 169.49-16.7L169.49-16.7 172.79-15.95Q175.29-15.35 176.91-14.45 178.54-13.55 179.46-11.93 180.39-10.3 180.39-7.6L180.39-7.6Q180.39-3.55 177.66-1.35 174.94 0.85 170.34 0.85L170.34 0.85ZM187.63-32.85L187.63-40.4 192.33-40.4 192.33-32.85 187.63-32.85ZM187.63 0L187.63-27.65 192.33-27.65 192.33 0 187.63 0ZM225.03-28.45Q230.63-28.45 233.95-24.7 237.28-20.95 237.28-13.8L237.28-13.8Q237.28-6.65 233.95-2.9 230.63 0.85 225.03 0.85L225.03 0.85Q220.98 0.85 217.03-2.5L217.03-2.5 217.03 11.7 212.33 11.7 212.33-27.65 217.03-27.65 217.03-25.05Q221.03-28.45 225.03-28.45L225.03-28.45ZM224.38-3.5Q228.33-3.5 230.38-6.13 232.43-8.75 232.43-13.8L232.43-13.8Q232.43-18.85 230.38-21.45 228.33-24.05 224.38-24.05L224.38-24.05Q220.63-24.05 217.03-20.95L217.03-20.95 217.03-6.6Q220.73-3.5 224.38-3.5L224.38-3.5ZM257.68-28.25L258.83-28.25 258.83-23.85 257.68-23.85Q253.38-23.85 249.33-20.4L249.33-20.4 249.33 0 244.63 0 244.63-27.65 249.33-27.65 249.33-24.55Q253.43-28.25 257.68-28.25L257.68-28.25ZM276.77 0.85Q272.37 0.85 269.3-1.07 266.22-3 264.67-6.33 263.12-9.65 263.12-13.8L263.12-13.8Q263.12-17.95 264.67-21.28 266.22-24.6 269.3-26.53 272.37-28.45 276.77-28.45L276.77-28.45Q281.17-28.45 284.25-26.53 287.32-24.6 288.85-21.28 290.37-17.95 290.37-13.8L290.37-13.8Q290.37-9.65 288.85-6.33 287.32-3 284.25-1.07 281.17 0.85 276.77 0.85L276.77 0.85ZM276.77-3.4Q280.92-3.4 283.2-6.3 285.47-9.2 285.47-13.8L285.47-13.8Q285.47-18.4 283.2-21.28 280.92-24.15 276.77-24.15L276.77-24.15Q272.62-24.15 270.32-21.28 268.02-18.4 268.02-13.8L268.02-13.8Q268.02-9.2 270.32-6.3 272.62-3.4 276.77-3.4L276.77-3.4ZM316.17-27.65L320.87-27.65 320.87 0.55Q320.87 6.2 318.25 9.38 315.62 12.55 309.07 12.55L309.07 12.55Q305.87 12.55 303.55 12.15 301.22 11.75 298.77 10.75L298.77 10.75 298.77 6.1Q301.07 7.15 303.37 7.68 305.67 8.2 307.62 8.2L307.62 8.2Q311.22 8.2 313.07 7.28 314.92 6.35 315.55 4.63 316.17 2.9 316.17 0.05L316.17 0.05 316.17-3.5Q312.22-0.15 308.17-0.15L308.17-0.15Q302.57-0.15 299.25-3.8 295.92-7.45 295.92-14.3L295.92-14.3Q295.92-21.2 299.27-24.83 302.62-28.45 308.17-28.45L308.17-28.45Q312.17-28.45 316.17-25.05L316.17-25.05 316.17-27.65ZM308.82-4.5Q312.47-4.5 316.17-7.6L316.17-7.6 316.17-20.95Q312.57-24.05 308.82-24.05L308.82-24.05Q304.92-24.05 302.85-21.48 300.77-18.9 300.77-14.3L300.77-14.3Q300.77-9.55 302.82-7.03 304.87-4.5 308.82-4.5L308.82-4.5ZM342.17-28.25L343.32-28.25 343.32-23.85 342.17-23.85Q337.87-23.85 333.82-20.4L333.82-20.4 333.82 0 329.12 0 329.12-27.65 333.82-27.65 333.82-24.55Q337.92-28.25 342.17-28.25L342.17-28.25ZM357.82-27.65Q362.22-27.65 364.52-26.18 366.82-24.7 367.57-22.23 368.32-19.75 368.32-16L368.32-16 368.32 0 363.62 0 363.62-2.75Q361.72-0.95 359.82-0.15 357.92 0.65 355.72 0.65L355.72 0.65Q353.12 0.65 351.02-0.48 348.92-1.6 347.69-3.73 346.47-5.85 346.47-8.75L346.47-8.75Q346.47-13.25 349.27-15.73 352.07-18.2 356.82-18.2L356.82-18.2Q360.57-18.2 363.57-16.55L363.57-16.55Q363.52-19 363.07-20.45 362.62-21.9 361.22-22.68 359.82-23.45 357.07-23.45L357.07-23.45 353.37-23.45 353.37-27.65 357.82-27.65ZM356.37-3.4Q358.07-3.4 359.94-4.2 361.82-5 363.62-6.6L363.62-6.6 363.62-12.9Q360.82-14.3 357.52-14.3L357.52-14.3Q354.87-14.3 353.07-13.03 351.27-11.75 351.27-8.75L351.27-8.75Q351.27-5.95 352.79-4.67 354.32-3.4 356.37-3.4L356.37-3.4ZM407.16-28.25Q412.21-28.25 414.64-25.55 417.06-22.85 417.06-16.65L417.06-16.65 417.06 0 412.36 0 412.36-16.65Q412.36-20.6 411.09-22.23 409.81-23.85 406.51-23.85L406.51-23.85Q402.61-23.85 398.71-20.1L398.71-20.1Q398.91-18.7 398.91-16.65L398.91-16.65 398.91 0 394.21 0 394.21-16.65Q394.21-20.6 392.94-22.23 391.66-23.85 388.36-23.85L388.36-23.85Q384.56-23.85 380.76-20.45L380.76-20.45 380.76 0 376.06 0 376.06-27.65 380.76-27.65 380.76-24.7Q384.81-28.25 389.01-28.25L389.01-28.25Q392.36-28.25 394.51-27.13 396.66-26 397.76-23.55L397.76-23.55Q402.31-28.25 407.16-28.25L407.16-28.25ZM433.46-27.65Q437.86-27.65 440.16-26.18 442.46-24.7 443.21-22.23 443.96-19.75 443.96-16L443.96-16 443.96 0 439.26 0 439.26-2.75Q437.36-0.95 435.46-0.15 433.56 0.65 431.36 0.65L431.36 0.65Q428.76 0.65 426.66-0.48 424.56-1.6 423.34-3.73 422.11-5.85 422.11-8.75L422.11-8.75Q422.11-13.25 424.91-15.73 427.71-18.2 432.46-18.2L432.46-18.2Q436.21-18.2 439.21-16.55L439.21-16.55Q439.16-19 438.71-20.45 438.26-21.9 436.86-22.68 435.46-23.45 432.71-23.45L432.71-23.45 429.01-23.45 429.01-27.65 433.46-27.65ZM432.01-3.4Q433.71-3.4 435.59-4.2 437.46-5 439.26-6.6L439.26-6.6 439.26-12.9Q436.46-14.3 433.16-14.3L433.16-14.3Q430.51-14.3 428.71-13.03 426.91-11.75 426.91-8.75L426.91-8.75Q426.91-5.95 428.44-4.67 429.96-3.4 432.01-3.4L432.01-3.4ZM463.76-22.95L457.36-22.95 457.36-7.15Q457.36-5.15 457.98-4.42 458.61-3.7 460.31-3.7L460.31-3.7Q461.81-3.7 463.51-4.1L463.51-4.1 463.51 0.15Q461.26 0.65 459.51 0.65L459.51 0.65Q455.71 0.65 454.18-0.9 452.66-2.45 452.66-6.1L452.66-6.1 452.66-22.95 449.06-22.95 449.06-27.3 452.66-27.3 452.66-36.8 457.36-36.8 457.36-27.3 463.76-27.3 463.76-22.95ZM482.31 0.85Q477.91 0.85 474.83-1.07 471.76-3 470.21-6.33 468.66-9.65 468.66-13.8L468.66-13.8Q468.66-17.95 470.21-21.28 471.76-24.6 474.83-26.53 477.91-28.45 482.31-28.45L482.31-28.45Q486.71-28.45 489.78-26.53 492.86-24.6 494.38-21.28 495.91-17.95 495.91-13.8L495.91-13.8Q495.91-9.65 494.38-6.33 492.86-3 489.78-1.07 486.71 0.85 482.31 0.85L482.31 0.85ZM482.31-3.4Q486.46-3.4 488.73-6.3 491.01-9.2 491.01-13.8L491.01-13.8Q491.01-18.4 488.73-21.28 486.46-24.15 482.31-24.15L482.31-24.15Q478.16-24.15 475.86-21.28 473.56-18.4 473.56-13.8L473.56-13.8Q473.56-9.2 475.86-6.3 478.16-3.4 482.31-3.4L482.31-3.4ZM516.25-28.25L517.4-28.25 517.4-23.85 516.25-23.85Q511.95-23.85 507.9-20.4L507.9-20.4 507.9 0 503.2 0 503.2-27.65 507.9-27.65 507.9-24.55Q512-28.25 516.25-28.25L516.25-28.25ZM547.1-28.45Q552.7-28.45 556.02-24.7 559.35-20.95 559.35-13.8L559.35-13.8Q559.35-6.65 556.02-2.9 552.7 0.85 547.1 0.85L547.1 0.85Q543.05 0.85 539.1-2.5L539.1-2.5 539.1 11.7 534.4 11.7 534.4-27.65 539.1-27.65 539.1-25.05Q543.1-28.45 547.1-28.45L547.1-28.45ZM546.45-3.5Q550.4-3.5 552.45-6.13 554.5-8.75 554.5-13.8L554.5-13.8Q554.5-18.85 552.45-21.45 550.4-24.05 546.45-24.05L546.45-24.05Q542.7-24.05 539.1-20.95L539.1-20.95 539.1-6.6Q542.8-3.5 546.45-3.5L546.45-3.5ZM578.64 0.85Q574.24 0.85 571.17-1.07 568.09-3 566.54-6.33 564.99-9.65 564.99-13.8L564.99-13.8Q564.99-17.95 566.54-21.28 568.09-24.6 571.17-26.53 574.24-28.45 578.64-28.45L578.64-28.45Q583.04-28.45 586.12-26.53 589.19-24.6 590.72-21.28 592.24-17.95 592.24-13.8L592.24-13.8Q592.24-9.65 590.72-6.33 589.19-3 586.12-1.07 583.04 0.85 578.64 0.85L578.64 0.85ZM578.64-3.4Q582.79-3.4 585.07-6.3 587.34-9.2 587.34-13.8L587.34-13.8Q587.34-18.4 585.07-21.28 582.79-24.15 578.64-24.15L578.64-24.15Q574.49-24.15 572.19-21.28 569.89-18.4 569.89-13.8L569.89-13.8Q569.89-9.2 572.19-6.3 574.49-3.4 578.64-3.4L578.64-3.4ZM618.14-42.3L622.84-42.3 622.84 0 618.14 0 618.14-2.5Q614.19 0.85 610.14 0.85L610.14 0.85Q604.54 0.85 601.19-2.9 597.84-6.65 597.84-13.8L597.84-13.8Q597.84-20.95 601.19-24.7 604.54-28.45 610.14-28.45L610.14-28.45Q614.14-28.45 618.14-25.05L618.14-25.05 618.14-42.3ZM610.74-3.5Q614.34-3.5 618.14-6.6L618.14-6.6 618.14-20.95Q614.44-24.05 610.74-24.05L610.74-24.05Q606.79-24.05 604.77-21.45 602.74-18.85 602.74-13.8L602.74-13.8Q602.74-8.75 604.77-6.13 606.79-3.5 610.74-3.5L610.74-3.5ZM651.24 0.85Q648.19 0.85 645.84 0.35 643.49-0.15 640.94-1.35L640.94-1.35 640.94-6Q645.69-3.35 651.24-3.35L651.24-3.35Q654.04-3.35 655.26-4.48 656.49-5.6 656.49-7.45L656.49-7.45Q656.49-9.25 655.51-10.1 654.54-10.95 652.34-11.55L652.34-11.55 649.09-12.35Q645.59-13.2 643.59-15.05 641.59-16.9 641.59-20.5L641.59-20.5Q641.59-24.25 644.04-26.35 646.49-28.45 651.24-28.45L651.24-28.45Q653.69-28.45 655.79-27.98 657.89-27.5 659.99-26.65L659.99-26.65 659.99-22.25Q657.94-23.2 655.94-23.73 653.94-24.25 651.39-24.25L651.39-24.25Q648.74-24.25 647.56-23.23 646.39-22.2 646.39-20.65L646.39-20.65Q646.39-18.95 647.41-18.07 648.44-17.2 650.39-16.7L650.39-16.7 653.69-15.95Q656.19-15.35 657.81-14.45 659.44-13.55 660.36-11.93 661.29-10.3 661.29-7.6L661.29-7.6Q661.29-3.55 658.56-1.35 655.84 0.85 651.24 0.85L651.24 0.85ZM675.58 0.65Q671.83 0.65 670.18-0.85 668.53-2.35 668.53-5.9L668.53-5.9 668.53-42.3 673.23-42.3 673.23-7.15Q673.23-5.15 673.86-4.42 674.48-3.7 676.23-3.7L676.23-3.7Q677.63-3.7 678.73-4L678.73-4 678.73 0.3Q676.73 0.65 675.58 0.65L675.58 0.65ZM697.63-28.25Q702.73-28.25 705.21-25.55 707.68-22.85 707.68-16.65L707.68-16.65 707.68 0 702.98 0 702.98-16.65Q702.98-20.55 701.66-22.2 700.33-23.85 696.98-23.85L696.98-23.85Q693.08-23.85 689.18-20.45L689.18-20.45 689.18 0 684.48 0 684.48-27.65 689.18-27.65 689.18-24.7Q693.28-28.25 697.63-28.25L697.63-28.25ZM734.23 0L724.13-12.75 721.13-9.7 721.13 0 716.43 0 716.43-42.3 721.13-42.3 721.13-15.65 732.43-27.3 738.33-27.3 727.33-16 739.93 0 734.23 0ZM757.58 0.85Q753.18 0.85 750.1-1.07 747.03-3 745.48-6.33 743.93-9.65 743.93-13.8L743.93-13.8Q743.93-17.95 745.48-21.28 747.03-24.6 750.1-26.53 753.18-28.45 757.58-28.45L757.58-28.45Q761.98-28.45 765.05-26.53 768.13-24.6 769.65-21.28 771.18-17.95 771.18-13.8L771.18-13.8Q771.18-9.65 769.65-6.33 768.13-3 765.05-1.07 761.98 0.85 757.58 0.85L757.58 0.85ZM757.58-3.4Q761.73-3.4 764-6.3 766.28-9.2 766.28-13.8L766.28-13.8Q766.28-18.4 764-21.28 761.73-24.15 757.58-24.15L757.58-24.15Q753.43-24.15 751.13-21.28 748.83-18.4 748.83-13.8L748.83-13.8Q748.83-9.2 751.13-6.3 753.43-3.4 757.58-3.4L757.58-3.4ZM809.57-28.25Q814.62-28.25 817.05-25.55 819.47-22.85 819.47-16.65L819.47-16.65 819.47 0 814.77 0 814.77-16.65Q814.77-20.6 813.5-22.23 812.22-23.85 808.92-23.85L808.92-23.85Q805.02-23.85 801.12-20.1L801.12-20.1Q801.32-18.7 801.32-16.65L801.32-16.65 801.32 0 796.62 0 796.62-16.65Q796.62-20.6 795.35-22.23 794.07-23.85 790.77-23.85L790.77-23.85Q786.97-23.85 783.17-20.45L783.17-20.45 783.17 0 778.47 0 778.47-27.65 783.17-27.65 783.17-24.7Q787.22-28.25 791.42-28.25L791.42-28.25Q794.77-28.25 796.92-27.13 799.07-26 800.17-23.55L800.17-23.55Q804.72-28.25 809.57-28.25L809.57-28.25Z" opacity="1" transform="matrix(1,0,0,1,0,0)" fill="#1c4b82" class="undefined-text-1" data-fill-palette-color="secondary" id="text-1"></path></svg></g></svg></g></svg></g></svg></g></svg></g></svg></g></svg></g><g><path d="M244.431 215.103A122.216 122.216 0 1 1 244.431 32.097L235.639 32.097A113.424 113.424 0 1 0 235.639 215.103L244.431 215.103" fill="#1c4b82" stroke="transparent" data-fill-palette-color="tertiary"></path></g></svg></g></svg><rect width="395.52" height="247.2" fill="none" stroke="none" visibility="hidden"></rect></g></svg></g></svg>